<mxfile host="app.diagrams.net" modified="2021-11-14T06:41:01.540Z" agent="5.0 (Windows NT 10.0; Win64; x64) AppleWebKit/537.36 (KHTML, like Gecko) Chrome/95.0.4638.69 Safari/537.36" etag="XF05CB3pQ3cAd5JAea9y" version="15.7.3" type="github">
  <diagram id="LQvf6A3fJUxLyVonL9kx" name="Page-1">
    <mxGraphModel dx="1328" dy="1552" grid="1" gridSize="10" guides="1" tooltips="1" connect="1" arrows="1" fold="1" page="1" pageScale="1" pageWidth="1169" pageHeight="827" math="0" shadow="0">
      <root>
        <mxCell id="0" />
        <mxCell id="1" parent="0" />
        <mxCell id="5VSUEc75ktjF6mR4zEoF-150" style="edgeStyle=orthogonalEdgeStyle;rounded=0;orthogonalLoop=1;jettySize=auto;html=1;startArrow=diamond;startFill=0;endArrow=open;endFill=0;" edge="1" parent="1" source="5VSUEc75ktjF6mR4zEoF-99" target="5VSUEc75ktjF6mR4zEoF-139">
          <mxGeometry relative="1" as="geometry" />
        </mxCell>
        <mxCell id="5VSUEc75ktjF6mR4zEoF-99" value="BaseKeyframeAnimation" style="swimlane;fontStyle=0;align=center;verticalAlign=top;childLayout=stackLayout;horizontal=1;startSize=26;horizontalStack=0;resizeParent=1;resizeLast=0;collapsible=1;marginBottom=0;rounded=0;shadow=0;strokeWidth=1;" vertex="1" parent="1">
          <mxGeometry x="365" y="93" width="440" height="170" as="geometry">
            <mxRectangle x="550" y="140" width="160" height="26" as="alternateBounds" />
          </mxGeometry>
        </mxCell>
        <mxCell id="5VSUEc75ktjF6mR4zEoF-100" value="-  keyframesWrapper: KeyframesWrapper&lt;K&gt; " style="text;align=left;verticalAlign=top;spacingLeft=4;spacingRight=4;overflow=hidden;rotatable=0;points=[[0,0.5],[1,0.5]];portConstraint=eastwest;" vertex="1" parent="5VSUEc75ktjF6mR4zEoF-99">
          <mxGeometry y="26" width="440" height="26" as="geometry" />
        </mxCell>
        <mxCell id="5VSUEc75ktjF6mR4zEoF-101" value="~  listeners: List&lt;AnimationListener&gt; " style="text;align=left;verticalAlign=top;spacingLeft=4;spacingRight=4;overflow=hidden;rotatable=0;points=[[0,0.5],[1,0.5]];portConstraint=eastwest;rounded=0;shadow=0;html=0;" vertex="1" parent="5VSUEc75ktjF6mR4zEoF-99">
          <mxGeometry y="52" width="440" height="26" as="geometry" />
        </mxCell>
        <mxCell id="5VSUEc75ktjF6mR4zEoF-102" value="" style="line;html=1;strokeWidth=1;align=left;verticalAlign=middle;spacingTop=-1;spacingLeft=3;spacingRight=3;rotatable=0;labelPosition=right;points=[];portConstraint=eastwest;" vertex="1" parent="5VSUEc75ktjF6mR4zEoF-99">
          <mxGeometry y="78" width="440" height="8" as="geometry" />
        </mxCell>
        <mxCell id="5VSUEc75ktjF6mR4zEoF-103" value="+ addUpdateListener (listener: AnimationListener): void" style="text;align=left;verticalAlign=top;spacingLeft=4;spacingRight=4;overflow=hidden;rotatable=0;points=[[0,0.5],[1,0.5]];portConstraint=eastwest;rounded=0;shadow=0;html=0;" vertex="1" parent="5VSUEc75ktjF6mR4zEoF-99">
          <mxGeometry y="86" width="440" height="26" as="geometry" />
        </mxCell>
        <mxCell id="5VSUEc75ktjF6mR4zEoF-104" value="~ BaseKeyframeAnimation (keyframes: List&lt;? extends Keyframe&lt;K&gt;&gt;)" style="text;align=left;verticalAlign=top;spacingLeft=4;spacingRight=4;overflow=hidden;rotatable=0;points=[[0,0.5],[1,0.5]];portConstraint=eastwest;" vertex="1" parent="5VSUEc75ktjF6mR4zEoF-99">
          <mxGeometry y="112" width="440" height="26" as="geometry" />
        </mxCell>
        <mxCell id="5VSUEc75ktjF6mR4zEoF-105" value="- Static wrap (keyframes: List&lt;? extends Keyframe&lt;T&gt;&gt;): KeyframesWrapper&lt;T&gt;" style="text;align=left;verticalAlign=top;spacingLeft=4;spacingRight=4;overflow=hidden;rotatable=0;points=[[0,0.5],[1,0.5]];portConstraint=eastwest;" vertex="1" parent="5VSUEc75ktjF6mR4zEoF-99">
          <mxGeometry y="138" width="440" height="26" as="geometry" />
        </mxCell>
        <mxCell id="5VSUEc75ktjF6mR4zEoF-106" value="Observer&amp;nbsp;Diagram" style="text;html=1;strokeColor=none;fillColor=none;align=center;verticalAlign=middle;whiteSpace=wrap;rounded=0;fontSize=18;fontStyle=1" vertex="1" parent="1">
          <mxGeometry x="365" y="40" width="190" height="30" as="geometry" />
        </mxCell>
        <mxCell id="5VSUEc75ktjF6mR4zEoF-139" value="&lt;&lt;interface&gt;&gt;&#xa;AnimationListener" style="swimlane;fontStyle=1;align=center;verticalAlign=top;childLayout=stackLayout;horizontal=1;startSize=40;horizontalStack=0;resizeParent=1;resizeLast=0;collapsible=1;marginBottom=0;rounded=0;shadow=0;strokeWidth=1;" vertex="1" parent="1">
          <mxGeometry x="500" y="363" width="170" height="74" as="geometry">
            <mxRectangle x="550" y="140" width="160" height="26" as="alternateBounds" />
          </mxGeometry>
        </mxCell>
        <mxCell id="5VSUEc75ktjF6mR4zEoF-141" value="" style="line;html=1;strokeWidth=1;align=left;verticalAlign=middle;spacingTop=-1;spacingLeft=3;spacingRight=3;rotatable=0;labelPosition=right;points=[];portConstraint=eastwest;" vertex="1" parent="5VSUEc75ktjF6mR4zEoF-139">
          <mxGeometry y="40" width="170" height="8" as="geometry" />
        </mxCell>
        <mxCell id="5VSUEc75ktjF6mR4zEoF-140" value="+ onValueChanged (): void" style="text;align=left;verticalAlign=top;spacingLeft=4;spacingRight=4;overflow=hidden;rotatable=0;points=[[0,0.5],[1,0.5]];portConstraint=eastwest;" vertex="1" parent="5VSUEc75ktjF6mR4zEoF-139">
          <mxGeometry y="48" width="170" height="26" as="geometry" />
        </mxCell>
        <mxCell id="5VSUEc75ktjF6mR4zEoF-153" style="edgeStyle=orthogonalEdgeStyle;rounded=0;orthogonalLoop=1;jettySize=auto;html=1;entryX=0.494;entryY=0.962;entryDx=0;entryDy=0;entryPerimeter=0;startArrow=diamond;startFill=0;endArrow=block;endFill=0;dashed=1;" edge="1" parent="1" source="5VSUEc75ktjF6mR4zEoF-142" target="5VSUEc75ktjF6mR4zEoF-140">
          <mxGeometry relative="1" as="geometry">
            <Array as="points">
              <mxPoint x="584" y="523" />
              <mxPoint x="584" y="523" />
            </Array>
          </mxGeometry>
        </mxCell>
        <mxCell id="5VSUEc75ktjF6mR4zEoF-142" value="DropShadowKeyframeAnimation" style="swimlane;fontStyle=0;align=center;verticalAlign=top;childLayout=stackLayout;horizontal=1;startSize=26;horizontalStack=0;resizeParent=1;resizeLast=0;collapsible=1;marginBottom=0;rounded=0;shadow=0;strokeWidth=1;" vertex="1" parent="1">
          <mxGeometry x="365" y="544" width="440" height="190" as="geometry">
            <mxRectangle x="550" y="140" width="160" height="26" as="alternateBounds" />
          </mxGeometry>
        </mxCell>
        <mxCell id="5VSUEc75ktjF6mR4zEoF-143" value="-  listener: BaseKeyframeAnimation.AnimationListener" style="text;align=left;verticalAlign=top;spacingLeft=4;spacingRight=4;overflow=hidden;rotatable=0;points=[[0,0.5],[1,0.5]];portConstraint=eastwest;" vertex="1" parent="5VSUEc75ktjF6mR4zEoF-142">
          <mxGeometry y="26" width="440" height="26" as="geometry" />
        </mxCell>
        <mxCell id="5VSUEc75ktjF6mR4zEoF-144" value="-  opacity: BaseKeyframeAnimation&lt;Float, Float&gt; " style="text;align=left;verticalAlign=top;spacingLeft=4;spacingRight=4;overflow=hidden;rotatable=0;points=[[0,0.5],[1,0.5]];portConstraint=eastwest;rounded=0;shadow=0;html=0;" vertex="1" parent="5VSUEc75ktjF6mR4zEoF-142">
          <mxGeometry y="52" width="440" height="26" as="geometry" />
        </mxCell>
        <mxCell id="5VSUEc75ktjF6mR4zEoF-149" value="-  radius: BaseKeyframeAnimation&lt;Float, Float&gt;" style="text;align=left;verticalAlign=top;spacingLeft=4;spacingRight=4;overflow=hidden;rotatable=0;points=[[0,0.5],[1,0.5]];portConstraint=eastwest;rounded=0;shadow=0;html=0;" vertex="1" parent="5VSUEc75ktjF6mR4zEoF-142">
          <mxGeometry y="78" width="440" height="26" as="geometry" />
        </mxCell>
        <mxCell id="5VSUEc75ktjF6mR4zEoF-145" value="" style="line;html=1;strokeWidth=1;align=left;verticalAlign=middle;spacingTop=-1;spacingLeft=3;spacingRight=3;rotatable=0;labelPosition=right;points=[];portConstraint=eastwest;" vertex="1" parent="5VSUEc75ktjF6mR4zEoF-142">
          <mxGeometry y="104" width="440" height="8" as="geometry" />
        </mxCell>
        <mxCell id="5VSUEc75ktjF6mR4zEoF-146" value="+ DropShadowKeyframeAnimation (listener: BaseKeyframeAnimation.AnimationListener, layer: BaseLayer, dropShadowEffect: DropShadowEffect)" style="text;align=left;verticalAlign=top;spacingLeft=4;spacingRight=4;overflow=hidden;rotatable=0;points=[[0,0.5],[1,0.5]];portConstraint=eastwest;rounded=0;shadow=0;html=0;" vertex="1" parent="5VSUEc75ktjF6mR4zEoF-142">
          <mxGeometry y="112" width="440" height="26" as="geometry" />
        </mxCell>
        <mxCell id="5VSUEc75ktjF6mR4zEoF-148" value="+ setOpacityCallback (Fixed callback: LottieValueCallback&lt;Float&gt;): void" style="text;align=left;verticalAlign=top;spacingLeft=4;spacingRight=4;overflow=hidden;rotatable=0;points=[[0,0.5],[1,0.5]];portConstraint=eastwest;" vertex="1" parent="5VSUEc75ktjF6mR4zEoF-142">
          <mxGeometry y="138" width="440" height="26" as="geometry" />
        </mxCell>
        <mxCell id="5VSUEc75ktjF6mR4zEoF-147" value="+ setRadiusCallback (callback: LottieValueCallback&lt;Float&gt;): void" style="text;align=left;verticalAlign=top;spacingLeft=4;spacingRight=4;overflow=hidden;rotatable=0;points=[[0,0.5],[1,0.5]];portConstraint=eastwest;" vertex="1" parent="5VSUEc75ktjF6mR4zEoF-142">
          <mxGeometry y="164" width="440" height="26" as="geometry" />
        </mxCell>
      </root>
    </mxGraphModel>
  </diagram>
</mxfile>
